<svg height="54.94" viewBox="0 0 267.969 54.94" width="267.969" xmlns="http://www.w3.org/2000/svg"><path d="m853.043 998.119h-5.665a.282.282 0 0 0 -.282.283v22.268l-15.156 8.92a.292.292 0 0 0 -.14.25v5.82a.275.275 0 0 0 .14.24.243.243 0 0 0 .143.04.333.333 0 0 0 .138-.03l20.96-11.83a.291.291 0 0 0 .144-.25v-25.43a.282.282 0 0 0 -.282-.281zm26.47 15.481a.293.293 0 0 0 .009-.28l-7.822-15.05a.283.283 0 0 0 -.251-.151h-6.1a.279.279 0 0 0 -.24.135.284.284 0 0 0 -.01.278l7.749 15.048a.266.266 0 0 0 .25.15h6.17a.289.289 0 0 0 .245-.13zm23.6-12.92-4.672-2.928a.28.28 0 0 0 -.379.08l-24.727 35.868a.278.278 0 0 0 -.018.29.284.284 0 0 0 .249.15h6.873a.272.272 0 0 0 .232-.12l22.527-32.94a.276.276 0 0 0 .044-.21.288.288 0 0 0 -.127-.19zm-2.177-7.017 5.082 3.191a.283.283 0 0 0 .149.044.279.279 0 0 0 .232-.124l3.066-4.485a.283.283 0 0 0 -.083-.4l-5.082-3.189a.283.283 0 0 0 -.382.08l-3.064 4.486a.283.283 0 0 0 .084.397zm5.216-7.663 5.083 3.192a.276.276 0 0 0 .38-.08l3.064-4.485a.284.284 0 0 0 .044-.218.28.28 0 0 0 -.127-.183l-5.077-3.193a.283.283 0 0 0 -.381.08l-3.069 4.486a.29.29 0 0 0 -.044.218.282.282 0 0 0 .127.183zm26.97 29.458h-27.294a.277.277 0 0 0 -.281.28v4.8a.277.277 0 0 0 .281.28h27.294a.277.277 0 0 0 .282-.28v-4.8a.277.277 0 0 0 -.282-.278zm38.665 3.74-19.949-5.3v-15.498a.281.281 0 0 0 -.281-.283h-8.066a.283.283 0 0 0 -.19.493l2.648 2.4v33.48a.286.286 0 0 0 .283.29h5.325a.285.285 0 0 0 .281-.29v-15.09l19.81 4.9h.067a.276.276 0 0 0 .174-.06.269.269 0 0 0 .108-.22v-4.54a.294.294 0 0 0 -.21-.28zm-136.411-7.66a.278.278 0 0 0 -.2-.48h-5.3v-12.658a.282.282 0 0 0 -.281-.283h-5.665a.282.282 0 0 0 -.281.283v18.408a.268.268 0 0 0 .035.13v.01s.012.01.017.02a.249.249 0 0 0 .071.07.048.048 0 0 0 .029.02.287.287 0 0 0 .126.04h5.665a.268.268 0 0 0 .191-.08zm-117.325-5.88h16.461a.246.246 0 0 0 .246-.25v-3.76a.246.246 0 0 0 -.246-.25h-16.461a.248.248 0 0 0 -.247.25v3.76a.248.248 0 0 0 .247.252zm72.354-7.7h11.615l-3.989 7.417a.24.24 0 0 0 0 .24.233.233 0 0 0 .211.12h4.178a.254.254 0 0 0 .2-.1l5.235-7.674a.247.247 0 0 0 .025-.207.235.235 0 0 0 .019-.043v-3.973a.248.248 0 0 0 -.247-.247h-17.247a.246.246 0 0 0 -.246.247v3.973a.245.245 0 0 0 .246.252zm19.195 10.122a.247.247 0 0 0 -.245-.25h-21.197a.247.247 0 0 0 -.246.25v3.97a.247.247 0 0 0 .246.25h15.566l-2.736 5.59a.251.251 0 0 0 .011.24.246.246 0 0 0 .21.11h4.177a.258.258 0 0 0 .2-.1l3.965-5.84a.245.245 0 0 0 .024-.21.093.093 0 0 0 .018-.04v-3.97zm-61.874 23.52h-18.32v-2.76h12.329a.248.248 0 0 0 .247-.25v-3.34a.248.248 0 0 0 -.247-.25h-12.329v-2.9h14.424a.247.247 0 0 0 .246-.25v-3.66a.247.247 0 0 0 -.246-.25h-14.424v-4.19h15.167a.247.247 0 0 0 .246-.25v-19.95a.248.248 0 0 0 -.246-.248h-36.047a.248.248 0 0 0 -.247.248v19.95a.248.248 0 0 0 .247.25h15.163v4.19h-10.447l1.226-2.2a.258.258 0 0 0 0-.25.236.236 0 0 0 -.212-.12h-5.385a.259.259 0 0 0 -.215.12l-4.611 8.3a.237.237 0 0 0 0 .24.244.244 0 0 0 .212.13h5.385a.245.245 0 0 0 .214-.13l1.075-1.93h12.758v2.9h-12.327a.246.246 0 0 0 -.245.25v3.34a.246.246 0 0 0 .245.25h12.327v2.76h-18.414a.247.247 0 0 0 -.246.25v3.65a.247.247 0 0 0 .246.25h42.447a.246.246 0 0 0 .246-.25v-3.65a.246.246 0 0 0 -.246-.25zm-7.9-33.626v11.106h-26.552v-11.106h26.549zm45.432 30.336-10.462 1.16v-3.27h6.712a.247.247 0 0 0 .246-.25v-3.78a.247.247 0 0 0 -.246-.25h-6.712v-3.43h9.26a.247.247 0 0 0 .246-.25v-24.591a.246.246 0 0 0 -.246-.247h-24.239a.246.246 0 0 0 -.246.247v24.591a.247.247 0 0 0 .246.25h9.261v3.43h-6.991a.248.248 0 0 0 -.247.25v3.78a.248.248 0 0 0 .247.25h6.991v3.9l-10.516 1.17a.252.252 0 0 0 -.219.25v3.98a.263.263 0 0 0 .082.19.245.245 0 0 0 .163.06h.028l26.693-2.97a.253.253 0 0 0 .22-.25v-3.98a.23.23 0 0 0 -.083-.18.224.224 0 0 0 -.191-.06zm-5.814-30.1v15.467h-15.01v-15.464h15.01zm19 16.837h-5.225a.245.245 0 0 0 -.246.24v20.21a.247.247 0 0 0 .246.25h5.225a.247.247 0 0 0 .246-.25v-20.21a.245.245 0 0 0 -.251-.237zm-31.681-6.97h2.98v3.28a.244.244 0 0 0 .246.24h3.759a.244.244 0 0 0 .244-.24v-3.28h2.98a.247.247 0 0 0 .247-.25v-3.52a.247.247 0 0 0 -.247-.25h-2.98v-3.27a.246.246 0 0 0 -.244-.25h-3.759a.246.246 0 0 0 -.246.25v3.27h-2.98a.248.248 0 0 0 -.247.25v3.52a.248.248 0 0 0 .242.253z" fill="#fff" fill-rule="evenodd" transform="translate(-704.031 -981)"/></svg>